<svg xmlns="http://www.w3.org/2000/svg" xmlns:xlink="http://www.w3.org/1999/xlink" width="48" height="48" viewBox="0 0 48 48"><defs><style>.a{fill:url(#a);}.b{fill:#222;}</style><linearGradient id="a" x1="0.5" x2="0.5" y2="1" gradientUnits="objectBoundingBox"><stop offset="0" stop-color="#e36c05"/><stop offset="1" stop-color="#e03006"/></linearGradient></defs><path class="a" d="M8048,23189a11,11,0,1,1,11-11A11.01,11.01,0,0,1,8048,23189Zm0-16.924a5.922,5.922,0,1,0,5.927,5.926A5.936,5.936,0,0,0,8048,23172.08Z" transform="translate(-8024.002 -23153.998)"/><path class="b" d="M24,1V19h2V1ZM22,4.242A21.019,21.019,0,0,0,4.234,22H6.25A19.03,19.03,0,0,1,22,6.262Zm6,0v2.02A19.021,19.021,0,0,1,43.746,22h2.019A21.019,21.019,0,0,0,28,4.242ZM22,14.426A11.034,11.034,0,0,0,14.426,22H16.52A9.043,9.043,0,0,1,22,16.527Zm6,0v2.1A9.043,9.043,0,0,1,33.48,22h2.094A11.034,11.034,0,0,0,28,14.426ZM25,22a3,3,0,1,0,0,6,3,3,0,0,0,0-6ZM1,24v2H19V24Zm30,0v2H49V24ZM4.234,28A21.027,21.027,0,0,0,22,45.762V43.738A19.021,19.021,0,0,1,6.254,28Zm10.191,0A11.034,11.034,0,0,0,22,35.574v-2.1A9.043,9.043,0,0,1,16.52,28Zm19.047,0A9.043,9.043,0,0,1,28,33.48v2.094A11.034,11.034,0,0,0,35.574,28Zm10.266,0A19.021,19.021,0,0,1,28,43.746v2.019A21.027,21.027,0,0,0,45.762,28ZM24,31V49h2V31Z" transform="translate(-1 -1)"/></svg>