<svg xmlns="http://www.w3.org/2000/svg" xmlns:xlink="http://www.w3.org/1999/xlink" width="42" height="36" viewBox="0 0 42 36"><defs><style>.a{fill:url(#a);}.b{fill:#222;}</style><linearGradient id="a" x1="0.5" x2="0.5" y2="1" gradientUnits="objectBoundingBox"><stop offset="0" stop-color="#e36c05"/><stop offset="1" stop-color="#e03006"/></linearGradient></defs><path class="a" d="M8043,23179a6,6,0,1,1,6-6A6.005,6.005,0,0,1,8043,23179Zm0-9.23a3.229,3.229,0,1,0,3.233,3.232A3.236,3.236,0,0,0,8043,23169.77Z" transform="translate(-8019 -23159)"/><path class="b" d="M7,7a3.015,3.015,0,0,0-3,3V40a3.015,3.015,0,0,0,3,3H43a3.015,3.015,0,0,0,3-3V10a3.015,3.015,0,0,0-3-3ZM7,9H43a.984.984,0,0,1,1,1v3H6V10A.984.984,0,0,1,7,9Zm1,1a1,1,0,1,0,1,1A1,1,0,0,0,8,10Zm3,0a1,1,0,1,0,1,1A1,1,0,0,0,11,10Zm3,0a1,1,0,1,0,1,1A1,1,0,0,0,14,10ZM6,15H44V40a.984.984,0,0,1-1,1H7a.984.984,0,0,1-1-1Zm22,2a3.99,3.99,0,0,0-1,7.855V32a4,4,0,0,1-8,0v-.586l.293.293a1,1,0,1,0,1.414-1.414L17,26.586V32a6,6,0,0,0,12,0V24.855A3.99,3.99,0,0,0,28,17Zm0,2a2,2,0,0,1,.09,3.99,1,1,0,0,0-.105,0l-.076,0A2,2,0,0,1,28,19Z" transform="translate(-4 -7)"/></svg>