<svg xmlns="http://www.w3.org/2000/svg" width="97.352" height="82.601" viewBox="0 0 97.352 82.601"><defs><style>.a{fill:rgba(255,255,255,0);}.a,.b{stroke:#222;}.a,.b,.c{stroke-linecap:round;stroke-linejoin:round;stroke-width:2px;}.a,.b,.c,.d{fill-rule:evenodd;}.b,.c{fill:rgba(0,0,0,0);}.c{stroke:#e35205;}.d{fill:#222;}</style></defs><g transform="translate(1 1.009)"><path class="a" d="M47.915,81.17s12.218-11.5,47.437-5.75V11.214C59.176-4.119,47.915,13.13,47.915,13.13ZM29.721,4.877c14.492.379,17.715,8.253,17.715,8.253V81.17S35.217,69.67,0,75.42V11.214q1.974-.837,3.85-1.547" transform="translate(0 -0.577)"/><path class="b" d="M43.885,17.949a46.128,46.128,0,0,0-13.806-4M40.2,25.208a52.106,52.106,0,0,0-10.412-2.49m4.919,9.711c-6.783-1.546-16.466-2.367-29.732-.642M41.67,43.4C35.3,40.807,23.715,38.163,4.98,40.6M41.648,52.2C35.276,49.613,23.692,46.98,4.98,49.414M37.055,59.46c-6.829-1.9-17.2-3.167-32.075-1.233m0,8.813a98.958,98.958,0,0,1,20.842-.7" transform="translate(-0.591 -1.656)"/><path class="c" d="M24.931,24.663l-7.356-6.983-7.357,6.983V2.22c13.264-5.522,14.713,1,14.713,1Z" transform="translate(-1.212 0)"/><path class="d" d="M75.666,61.916a2.967,2.967,0,0,1,.22-1.135,2.834,2.834,0,0,1,.615-.931,3.127,3.127,0,0,1,.914-.63,2.748,2.748,0,0,1,1.15-.235,2.778,2.778,0,0,1,1.135.235,2.972,2.972,0,0,1,1.561,1.561,2.778,2.778,0,0,1,.236,1.135,2.745,2.745,0,0,1-.236,1.15,3.126,3.126,0,0,1-.63.915,2.845,2.845,0,0,1-.931.614,2.967,2.967,0,0,1-1.135.22,2.852,2.852,0,0,1-2.9-2.9ZM69.3,23.617a16.45,16.45,0,0,1,1.923-1.639,14.891,14.891,0,0,1,2.347-1.4,13.932,13.932,0,0,1,2.79-.977,14.116,14.116,0,0,1,3.278-.362A12.9,12.9,0,0,1,83.8,19.9a10.508,10.508,0,0,1,3.42,1.891,8.939,8.939,0,0,1,3.2,7,10.472,10.472,0,0,1-.741,4.13A11.458,11.458,0,0,1,87.8,35.958a15.8,15.8,0,0,1-2.459,2.3q-1.323.993-2.474,1.86a14.175,14.175,0,0,0-1.955,1.749,3.127,3.127,0,0,0-.867,1.954l-.377,5.17H77.621l-.158-5.39v-.158a3.6,3.6,0,0,1,.757-2.269,11.762,11.762,0,0,1,1.875-1.891q1.12-.913,2.428-1.86A17.29,17.29,0,0,0,84.949,35.3a10.917,10.917,0,0,0,1.876-2.728,8.23,8.23,0,0,0,.756-3.656A6.656,6.656,0,0,0,85.123,23.6a8.1,8.1,0,0,0-2.617-1.418,9.809,9.809,0,0,0-3.088-.488,10.651,10.651,0,0,0-3.61.551,12.474,12.474,0,0,0-2.568,1.23A12.684,12.684,0,0,0,71.6,24.7q-.6.551-.819.551a.744.744,0,0,1-.694-.377Z" transform="translate(-8.225 -2.283)"/></g></svg>