<svg xmlns="http://www.w3.org/2000/svg" width="119.539" height="82.211" viewBox="0 0 119.539 82.211"><defs><style>.a,.b,.c,.d{fill:rgba(255,255,255,0);stroke-width:2px;fill-rule:evenodd;}.a,.b,.c{stroke:#222;}.a,.b,.d{stroke-linecap:round;}.a,.c,.d{stroke-linejoin:round;}.d{stroke:#e35205;}</style></defs><g transform="translate(1 1)"><path class="a" d="M26.229,57.511c.309-5.165,3.583-7.721,7.141-9.559-3.17-1.279-6.505-2.363-7.365-4.674-.028-.312-.05-.813-.064-1.331,4.721-.484,8.031-1.618,8.031-2.935-.013,0-.01-.055-.01-.078-3.529-3.179,3.06-25.784-9.207-25.324A6.245,6.245,0,0,0,20.7,12.379c-16.616,1.257-9.27,22.6-13.056,26.632H7.639v.006h0c.014,1.292,3.216,2.4,7.8,2.9-.013.315-.041.7-.1,1.357C13.437,48.4.592,46.959,0,56.83c0,0,.315,4.989,20.646,4.989a81.155,81.155,0,0,0,10.229-.447C26.136,59.645,26.229,57.511,26.229,57.511Z" transform="translate(0 5.181)"/><path class="b" d="M64.018,68.878C42.142,67.867,41.8,62.016,41.8,62.016,42.467,50.947,55.259,50,61.272,46.41l2.453-5.638c0-.577-.011-3.6-.011-4.229-1.116-.586-3.194-4.316-3.529-7.467-.878-.07-2.258-.926-2.664-4.3A3.155,3.155,0,0,1,58.7,21.619C55.734,10.211,57.366.248,70.887,0c3.379,0,5.98.9,6.995,2.685,9.868,1.375,6.907,14.644,5.48,18.934a3.152,3.152,0,0,1,1.176,3.153c-.4,3.377-1.786,4.234-2.664,4.3-.336,3.15-2.333,6.881-3.448,7.467,0,1.145-.021,3.367-.014,4.409l2.165,5.458c6.013,3.586,18.8,4.538,19.469,15.606,0,0-.338,5.851-22.213,6.863" transform="translate(17.494 0)"/><path class="b" d="M38,66.524c-19.341-.9-19.575-6.136-19.575-6.136.685-9.61,11.832-10.558,17.147-13.728l2.169-4.987c0-.508-.01-3.18-.01-3.736-.987-.519-2.824-3.817-3.121-6.6-.776-.062-2-.82-2.355-3.8a2.79,2.79,0,0,1,1.04-2.789C30.681,14.655,32.122,5.847,44.077,5.627c2.987,0,5.287.8,6.183,2.375,8.725,1.216,6.107,12.946,4.846,16.74a2.787,2.787,0,0,1,1.04,2.789c-.357,2.984-1.58,3.742-2.355,3.8-.3,2.784-2.064,6.082-3.05,6.6,0,1.011-.02,2.976-.013,3.9l1.915,4.827A53.687,53.687,0,0,0,58.7,49.228S51.6,53.459,51.6,59.241c0,3.925,9.965,5.929,9.965,5.929a100.036,100.036,0,0,1-11.345,1.353Z" transform="translate(7.712 2.355)"/><path class="c" d="M65.12,32.611l9.932,1.624L72.011,28.76Zm.2,0-9.935,1.624L58.43,28.76Z" transform="translate(23.178 12.036)"/><path class="d" d="M69.7,32.473l-5.21,5.549,1.826,26.154-3.126,2.857L60.08,64.176l3.108-26.154-4.9-5.569,5.705-.963Z" transform="translate(24.392 13.178)"/></g></svg>