<svg xmlns="http://www.w3.org/2000/svg" width="41.508" height="38.146" viewBox="0 0 41.508 38.146"><defs><style>.a,.c,.e{fill:none;}.a{stroke:#222;stroke-linecap:round;stroke-linejoin:round;}.a,.b{fill-rule:evenodd;}.b{fill:#e35205;}.c{stroke:#e35205;}.d{stroke:none;}</style></defs><path class="a" d="M12.758,22.761h0l6.51-16.356ZM19.8,25.018l7.17-18.613Zm7.7,0L34.666,6.405Zm-13.2-5.656h0Zm-1.54-6.522h0Zm1.039,12.485H34.784L42.07,6.405H11.048M1.727,1.517H3c2.793,0,3.8,1.267,4.524,3.681l6.062,20.249c.6,2.271,2.258,4.008,5.676,4.008H36.075" transform="translate(-1.062 -0.471)"/><path class="b" d="M1.967.98A.983.983,0,1,1,.983,0a.981.981,0,0,1,.984.98" transform="translate(0 0)"/><g class="c" transform="translate(15.843 31.18)"><ellipse class="d" cx="3.495" cy="3.483" rx="3.495" ry="3.483"/><ellipse class="e" cx="3.495" cy="3.483" rx="2.995" ry="2.983"/></g><g class="c" transform="translate(28.423 31.18)"><ellipse class="d" cx="3.495" cy="3.483" rx="3.495" ry="3.483"/><ellipse class="e" cx="3.495" cy="3.483" rx="2.995" ry="2.983"/></g></svg>