<svg xmlns="http://www.w3.org/2000/svg" width="89.008" height="82.146" viewBox="0 0 89.008 82.146"><defs><style>.a,.c,.e{fill:none;}.a{stroke:#222;stroke-linecap:round;stroke-linejoin:round;}.a,.c{stroke-width:2px;}.a,.b{fill-rule:evenodd;}.b{fill:#e35205;}.c{stroke:#e35205;}.d{stroke:none;}</style></defs><g transform="translate(0 1)"><path class="a" d="M25.4,47.266h0l13.97-35.223Zm15.107,4.861L55.9,12.044Zm16.524,0L72.419,12.044ZM28.7,39.946h0ZM25.393,25.9h0Zm2.23,26.885h45.05L88.308,12.044H21.731m-20-10.527H4.449c5.994,0,8.165,2.729,9.709,7.926l13.01,43.606c1.292,4.891,4.847,8.631,12.181,8.631H75.442" transform="translate(-0.3 -0.264)"/><path class="b" d="M4.221,2.11A2.111,2.111,0,1,1,2.11,0,2.11,2.11,0,0,1,4.221,2.11" transform="translate(0 -1)"/><g class="c" transform="translate(34 66.146)"><circle class="d" cx="7.5" cy="7.5" r="7.5"/><circle class="e" cx="7.5" cy="7.5" r="6.5"/></g><g class="c" transform="translate(61 66.146)"><circle class="d" cx="7.5" cy="7.5" r="7.5"/><circle class="e" cx="7.5" cy="7.5" r="6.5"/></g></g></svg>