<svg xmlns="http://www.w3.org/2000/svg" width="99.574" height="78.28" viewBox="0 0 99.574 78.28"><defs><style>.a{fill:#e35205;}</style></defs><path d="M90.628,19a9.2,9.2,0,0,1,9.181,9.181V64.8a18.2,18.2,0,0,0-2.3-1.331V28.181A6.87,6.87,0,0,0,90.628,21.3H21.771a6.87,6.87,0,0,0-6.886,6.886V77.528h57.22A18.93,18.93,0,0,0,72,79.492c0,.108,0,.22,0,.332H10.3v2.3a5.721,5.721,0,0,0,5.738,5.738H74.091a17.776,17.776,0,0,0,1.466,2.3H16.033A8.049,8.049,0,0,1,8,82.119V78.676a1.15,1.15,0,0,1,1.148-1.148H12.59V28.181A9.2,9.2,0,0,1,21.771,19ZM57.921,24.738a.574.574,0,0,1,.5.282.566.566,0,0,1,0,.583.573.573,0,0,1-.5.282H54.479a.573.573,0,0,1-.5-.282.567.567,0,0,1,0-.583.574.574,0,0,1,.5-.282ZM93.5,29.329a.574.574,0,0,1,.5.282.566.566,0,0,1,0,.583.573.573,0,0,1-.5.282H19.476V59.74a.573.573,0,0,1-.282.5.566.566,0,0,1-.583,0,.574.574,0,0,1-.282-.5V29.9a.572.572,0,0,1,.574-.574Zm.408,4.747a.579.579,0,0,1,.166.417V62.224c-.377-.094-.762-.175-1.148-.247V34.493a.555.555,0,0,1,.161-.408.6.6,0,0,1,.4-.175A.579.579,0,0,1,93.905,34.076Zm-75,41.157a.572.572,0,0,1-.574-.574V68.921a.574.574,0,0,1,.282-.5.567.567,0,0,1,.583,0,.573.573,0,0,1,.282.5v5.164h53.36c-.117.377-.229.762-.323,1.148Zm.408-13.615a.579.579,0,0,1,.166.417v4.59a.573.573,0,0,1-.282.5.566.566,0,0,1-.583,0,.574.574,0,0,1-.282-.5v-4.59a.555.555,0,0,1,.161-.408.6.6,0,0,1,.4-.175A.579.579,0,0,1,19.31,61.619Zm40.906,20.5a.574.574,0,0,1,.5.282.566.566,0,0,1,0,.583.573.573,0,0,1-.5.282H52.183a.573.573,0,0,1-.5-.282.567.567,0,0,1,0-.583.574.574,0,0,1,.5-.282Zm0,0" transform="translate(-8 -19)"/><path class="a" d="M81.554,56.211A17.788,17.788,0,1,0,99.342,74,17.808,17.808,0,0,0,81.554,56.211Zm0,33.281A15.493,15.493,0,1,1,97.047,74,15.514,15.514,0,0,1,81.554,89.492Zm0,0" transform="translate(0.232 -13.507)"/><path class="a" d="M90.447,66.649a.579.579,0,0,0-.511.157l-4.577,4.577A2.29,2.29,0,0,1,82.4,68.42l4.59-4.568a.569.569,0,0,0-.17-.928,7.943,7.943,0,0,0-3.281-.713,8.028,8.028,0,0,0-7.392,11.171l-6.191,6.209a.576.576,0,0,0,.408.982.559.559,0,0,0,.4-.17l5.94-5.958a8.068,8.068,0,0,0,2.631,2.631l-5.94,5.958a.576.576,0,0,0,.408.982.559.559,0,0,0,.4-.17L80.4,77.636A8.023,8.023,0,0,0,90.868,66.981.587.587,0,0,0,90.447,66.649ZM83.534,77.13a6.886,6.886,0,0,1,0-13.771,6.8,6.8,0,0,1,2.008.3L81.5,67.689a.53.53,0,0,0-.117.166,3.439,3.439,0,0,0,4.537,4.537.6.6,0,0,0,.166-.112l4.03-4.03a6.7,6.7,0,0,1,.3,1.995A6.89,6.89,0,0,1,83.534,77.13Zm0,0" transform="translate(1.12 -12.621)"/></svg>